<svg width="14" height="14" viewBox="0 0 14 14" fill="none" xmlns="http://www.w3.org/2000/svg">
<path d="M8.41651 10.9767C8.30568 10.9767 8.19484 10.9359 8.10734 10.8484C7.93818 10.6792 7.93818 10.3992 8.10734 10.23L11.339 6.99836L8.10734 3.76669C7.93818 3.59753 7.93818 3.31753 8.10734 3.14836C8.27651 2.97919 8.55651 2.97919 8.72568 3.14836L12.2665 6.68919C12.4357 6.85836 12.4357 7.13836 12.2665 7.30753L8.72568 10.8484C8.63818 10.9359 8.52734 10.9767 8.41651 10.9767Z" fill="white"/>
<path d="M11.8644 7.4375H2.04688C1.80771 7.4375 1.60938 7.23917 1.60938 7C1.60938 6.76083 1.80771 6.5625 2.04688 6.5625H11.8644C12.1035 6.5625 12.3019 6.76083 12.3019 7C12.3019 7.23917 12.1035 7.4375 11.8644 7.4375Z" fill="white"/>
</svg>
