<svg width="56" height="56" viewBox="0 0 56 56" fill="none" xmlns="http://www.w3.org/2000/svg">
<path d="M27.9966 31.0346C27.6933 31.0346 27.3899 30.9646 27.1099 30.8013L6.50662 18.878C5.68995 18.388 5.38662 17.3146 5.87662 16.4746C6.36662 15.6346 7.43995 15.3546 8.27995 15.8446L27.9966 27.2546L47.5966 15.9146C48.4366 15.4246 49.5099 15.728 49.9999 16.5446C50.4899 17.3846 50.1866 18.458 49.3699 18.948L28.9066 30.8013C28.6033 30.9413 28.2999 31.0346 27.9966 31.0346Z" fill="#7922AF"/>
<path d="M28 52.1711C27.0433 52.1711 26.25 51.3778 26.25 50.4211V29.2578C26.25 28.3011 27.0433 27.5078 28 27.5078C28.9567 27.5078 29.75 28.3011 29.75 29.2578V50.4211C29.75 51.3778 28.9567 52.1711 28 52.1711Z" fill="#7922AF"/>
<path d="M28.0015 53.0827C25.9481 53.0827 23.9181 52.6394 22.3081 51.7527L9.84812 44.8227C6.46479 42.956 3.82812 38.4527 3.82812 34.5793V21.396C3.82812 17.5227 6.46479 13.0427 9.84812 11.1527L22.3081 4.24602C25.5048 2.47268 30.4981 2.47268 33.6948 4.24602L46.1548 11.176C49.5381 13.0427 52.1748 17.546 52.1748 21.4194V34.6027C52.1748 38.476 49.5381 42.956 46.1548 44.846L33.6948 51.7527C32.0848 52.6394 30.0548 53.0827 28.0015 53.0827ZM28.0015 6.41602C26.5315 6.41602 25.0848 6.71935 24.0115 7.30268L11.5515 14.2327C9.31146 15.4693 7.32813 18.8294 7.32813 21.396V34.5793C7.32813 37.146 9.31146 40.506 11.5515 41.766L24.0115 48.696C26.1348 49.886 29.8681 49.886 31.9915 48.696L44.4515 41.766C46.6915 40.506 48.6748 37.1693 48.6748 34.5793V21.396C48.6748 18.8294 46.6915 15.4693 44.4515 14.2093L31.9915 7.27935C30.9181 6.71935 29.4715 6.41602 28.0015 6.41602Z" fill="#7922AF"/>
</svg>
