<svg width="56" height="56" viewBox="0 0 56 56" fill="none" xmlns="http://www.w3.org/2000/svg">
<path d="M46.13 26.2494H36.7033C32.0133 26.2494 29.75 24.1727 29.75 19.8794V9.28602C29.75 4.99268 32.0367 2.91602 36.7033 2.91602H46.13C50.82 2.91602 53.0833 4.99268 53.0833 9.28602V19.856C53.0833 24.1727 50.7967 26.2494 46.13 26.2494ZM36.7033 6.41602C33.5767 6.41602 33.25 7.30268 33.25 9.28602V19.856C33.25 21.8627 33.5767 22.726 36.7033 22.726H46.13C49.2567 22.726 49.5833 21.8394 49.5833 19.856V9.28602C49.5833 7.27935 49.2567 6.41602 46.13 6.41602H36.7033Z" fill="#7922AF"/>
<path d="M46.13 53.0833H36.7033C32.0133 53.0833 29.75 50.7967 29.75 46.13V36.7033C29.75 32.0133 32.0367 29.75 36.7033 29.75H46.13C50.82 29.75 53.0833 32.0367 53.0833 36.7033V46.13C53.0833 50.7967 50.7967 53.0833 46.13 53.0833ZM36.7033 33.25C33.95 33.25 33.25 33.95 33.25 36.7033V46.13C33.25 48.8833 33.95 49.5833 36.7033 49.5833H46.13C48.8833 49.5833 49.5833 48.8833 49.5833 46.13V36.7033C49.5833 33.95 48.8833 33.25 46.13 33.25H36.7033Z" fill="#7922AF"/>
<path d="M19.298 26.2494H9.8713C5.1813 26.2494 2.91797 24.1727 2.91797 19.8794V9.28602C2.91797 4.99268 5.20464 2.91602 9.8713 2.91602H19.298C23.988 2.91602 26.2513 4.99268 26.2513 9.28602V19.856C26.2513 24.1727 23.9646 26.2494 19.298 26.2494ZM9.8713 6.41602C6.74464 6.41602 6.41797 7.30268 6.41797 9.28602V19.856C6.41797 21.8627 6.74464 22.726 9.8713 22.726H19.298C22.4246 22.726 22.7513 21.8394 22.7513 19.856V9.28602C22.7513 7.27935 22.4246 6.41602 19.298 6.41602H9.8713Z" fill="#7922AF"/>
<path d="M19.298 53.0833H9.8713C5.1813 53.0833 2.91797 50.7967 2.91797 46.13V36.7033C2.91797 32.0133 5.20464 29.75 9.8713 29.75H19.298C23.988 29.75 26.2513 32.0367 26.2513 36.7033V46.13C26.2513 50.7967 23.9646 53.0833 19.298 53.0833ZM9.8713 33.25C7.11797 33.25 6.41797 33.95 6.41797 36.7033V46.13C6.41797 48.8833 7.11797 49.5833 9.8713 49.5833H19.298C22.0513 49.5833 22.7513 48.8833 22.7513 46.13V36.7033C22.7513 33.95 22.0513 33.25 19.298 33.25H9.8713Z" fill="#7922AF"/>
</svg>
