<svg width="168" height="24" viewBox="0 0 168 24" fill="none" xmlns="http://www.w3.org/2000/svg">
<path d="M12 0L14.6942 8.2918H23.4127L16.3593 13.4164L19.0534 21.7082L12 16.5836L4.94658 21.7082L7.64074 13.4164L0.587322 8.2918H9.30583L12 0Z" fill="#7922AF"/>
<path d="M48 0L50.6942 8.2918H59.4127L52.3593 13.4164L55.0534 21.7082L48 16.5836L40.9466 21.7082L43.6407 13.4164L36.5873 8.2918H45.3058L48 0Z" fill="#7922AF"/>
<path d="M84 0L86.6942 8.2918H95.4127L88.3593 13.4164L91.0534 21.7082L84 16.5836L76.9466 21.7082L79.6407 13.4164L72.5873 8.2918H81.3058L84 0Z" fill="#7922AF"/>
<path d="M120 0L122.694 8.2918H131.413L124.359 13.4164L127.053 21.7082L120 16.5836L112.947 21.7082L115.641 13.4164L108.587 8.2918H117.306L120 0Z" fill="#7922AF"/>
<path d="M156 0L158.694 8.2918H167.413L160.359 13.4164L163.053 21.7082L156 16.5836L148.947 21.7082L151.641 13.4164L144.587 8.2918H153.306L156 0Z" fill="#7922AF"/>
</svg>
