<svg width="56" height="56" viewBox="0 0 56 56" fill="none" xmlns="http://www.w3.org/2000/svg">
<path d="M11.668 36.7493C10.7113 36.7493 9.91797 35.956 9.91797 34.9993V18.666C9.91797 17.7093 10.7113 16.916 11.668 16.916C12.6246 16.916 13.418 17.7093 13.418 18.666V34.9993C13.418 35.956 12.6246 36.7493 11.668 36.7493Z" fill="#7922AF"/>
<path d="M12.2513 53.0827C7.09464 53.0827 2.91797 48.906 2.91797 43.7493C2.91797 38.5927 7.09464 34.416 12.2513 34.416C17.408 34.416 21.5846 38.5927 21.5846 43.7493C21.5846 48.906 17.408 53.0827 12.2513 53.0827ZM12.2513 37.916C9.0313 37.916 6.41797 40.5293 6.41797 43.7493C6.41797 46.9693 9.0313 49.5827 12.2513 49.5827C15.4713 49.5827 18.0846 46.9693 18.0846 43.7493C18.0846 40.5293 15.4713 37.916 12.2513 37.916Z" fill="#7922AF"/>
<path d="M11.668 20.416C6.83797 20.416 2.91797 16.496 2.91797 11.666C2.91797 6.83602 6.83797 2.91602 11.668 2.91602C16.498 2.91602 20.418 6.83602 20.418 11.666C20.418 16.496 16.498 20.416 11.668 20.416ZM11.668 6.41602C8.77464 6.41602 6.41797 8.77268 6.41797 11.666C6.41797 14.5593 8.77464 16.916 11.668 16.916C14.5613 16.916 16.918 14.5593 16.918 11.666C16.918 8.77268 14.5613 6.41602 11.668 6.41602Z" fill="#7922AF"/>
<path d="M44.332 20.416C39.502 20.416 35.582 16.496 35.582 11.666C35.582 6.83602 39.502 2.91602 44.332 2.91602C49.162 2.91602 53.082 6.83602 53.082 11.666C53.082 16.496 49.162 20.416 44.332 20.416ZM44.332 6.41602C41.4387 6.41602 39.082 8.77268 39.082 11.666C39.082 14.5593 41.4387 16.916 44.332 16.916C47.2254 16.916 49.582 14.5593 49.582 11.666C49.582 8.77268 47.2254 6.41602 44.332 6.41602Z" fill="#7922AF"/>
<path d="M11.9672 36.7513C11.8272 36.7513 11.6872 36.7279 11.5238 36.7046C10.5905 36.4713 10.0305 35.5146 10.2638 34.5813C11.5472 29.6346 16.0038 26.1813 21.1138 26.1813C21.1372 26.1813 21.1372 26.1813 21.1605 26.1813L29.1638 26.2046C29.1872 26.2046 29.1872 26.2046 29.2105 26.2046C34.3905 26.2046 39.0338 22.9146 40.7372 18.0146C41.0638 17.1046 42.0438 16.6146 42.9538 16.9413C43.8638 17.2679 44.3538 18.2479 44.0272 19.1579C41.8338 25.4812 35.7905 29.6346 29.1405 29.7046L21.1372 29.6813H21.1138C17.5905 29.6813 14.5338 32.0613 13.6472 35.4679C13.4605 36.2379 12.7372 36.7513 11.9672 36.7513Z" fill="#7922AF"/>
</svg>
