<svg width="56" height="56" viewBox="0 0 56 56" fill="none" xmlns="http://www.w3.org/2000/svg">
<path d="M44.3346 39.0833C43.378 39.0833 42.5846 38.29 42.5846 37.3333V15.1667C42.5846 13.5567 41.278 12.25 39.668 12.25H29.168C28.2113 12.25 27.418 11.4567 27.418 10.5C27.418 9.54333 28.2113 8.75 29.168 8.75H39.668C43.2146 8.75 46.0846 11.62 46.0846 15.1667V37.3333C46.0846 38.29 45.2913 39.0833 44.3346 39.0833Z" fill="#7922AF"/>
<path d="M35 18.0861C34.6033 18.0861 34.2067 17.9461 33.88 17.6894L26.88 11.8561C26.4834 11.5294 26.25 11.0394 26.25 10.5028C26.25 9.9661 26.4834 9.49943 26.88 9.14943L33.88 3.31609C34.6267 2.68609 35.7234 2.80277 36.3534 3.54944C36.9834 4.29611 36.8666 5.39277 36.12 6.02277L30.73 10.5028L36.12 14.9828C36.8666 15.6128 36.96 16.7094 36.3534 17.4561C36.0034 17.8761 35.49 18.0861 35 18.0861Z" fill="#7922AF"/>
<path d="M11.668 39.0833C10.7113 39.0833 9.91797 38.29 9.91797 37.3333V21C9.91797 20.0433 10.7113 19.25 11.668 19.25C12.6246 19.25 13.418 20.0433 13.418 21V37.3333C13.418 38.29 12.6246 39.0833 11.668 39.0833Z" fill="#7922AF"/>
<path d="M12.2513 21.5827C7.09464 21.5827 2.91797 17.406 2.91797 12.2493C2.91797 7.09268 7.09464 2.91602 12.2513 2.91602C17.408 2.91602 21.5846 7.09268 21.5846 12.2493C21.5846 17.406 17.408 21.5827 12.2513 21.5827ZM12.2513 6.41602C9.0313 6.41602 6.41797 9.02935 6.41797 12.2493C6.41797 15.4693 9.0313 18.0827 12.2513 18.0827C15.4713 18.0827 18.0846 15.4693 18.0846 12.2493C18.0846 9.02935 15.4713 6.41602 12.2513 6.41602Z" fill="#7922AF"/>
<path d="M11.668 53.084C6.83797 53.084 2.91797 49.164 2.91797 44.334C2.91797 39.504 6.83797 35.584 11.668 35.584C16.498 35.584 20.418 39.504 20.418 44.334C20.418 49.164 16.498 53.084 11.668 53.084ZM11.668 39.084C8.77464 39.084 6.41797 41.4407 6.41797 44.334C6.41797 47.2273 8.77464 49.584 11.668 49.584C14.5613 49.584 16.918 47.2273 16.918 44.334C16.918 41.4407 14.5613 39.084 11.668 39.084Z" fill="#7922AF"/>
<path d="M44.332 53.084C39.502 53.084 35.582 49.164 35.582 44.334C35.582 39.504 39.502 35.584 44.332 35.584C49.162 35.584 53.082 39.504 53.082 44.334C53.082 49.164 49.162 53.084 44.332 53.084ZM44.332 39.084C41.4387 39.084 39.082 41.4407 39.082 44.334C39.082 47.2273 41.4387 49.584 44.332 49.584C47.2254 49.584 49.582 47.2273 49.582 44.334C49.582 41.4407 47.2254 39.084 44.332 39.084Z" fill="#7922AF"/>
</svg>
