<svg width="56" height="56" viewBox="0 0 56 56" fill="none" xmlns="http://www.w3.org/2000/svg">
<path d="M33.1814 50.4685C30.428 50.4685 26.5314 48.5318 23.4514 39.2685L21.7714 34.2285L16.7314 32.5485C7.49135 29.4685 5.55469 25.5718 5.55469 22.8185C5.55469 20.0885 7.49135 16.1685 16.7314 13.0651L36.5414 6.46179C41.488 4.80512 45.618 5.29512 48.1614 7.81512C50.7047 10.3351 51.1947 14.4885 49.538 19.4351L42.9347 39.2451C39.8314 48.5318 35.9347 50.4685 33.1814 50.4685ZM17.828 16.4018C11.3414 18.5718 9.03135 21.1385 9.03135 22.8185C9.03135 24.4985 11.3414 27.0651 17.828 29.2118L23.708 31.1718C24.2214 31.3351 24.6414 31.7551 24.8047 32.2685L26.7647 38.1485C28.9114 44.6351 31.5014 46.9451 33.1814 46.9451C34.8614 46.9451 37.428 44.6351 39.598 38.1485L46.2013 18.3385C47.3913 14.7451 47.1814 11.8051 45.6647 10.2885C44.148 8.77179 41.208 8.58512 37.638 9.77512L17.828 16.4018Z" fill="#7922AF"/>
<path d="M23.5918 33.5993C23.1485 33.5993 22.7052 33.436 22.3552 33.086C21.6785 32.4094 21.6785 31.2893 22.3552 30.6127L30.7085 22.236C31.3852 21.5593 32.5052 21.5593 33.1818 22.236C33.8585 22.9127 33.8585 24.0327 33.1818 24.7093L24.8285 33.086C24.5018 33.436 24.0352 33.5993 23.5918 33.5993Z" fill="#7922AF"/>
</svg>
