<svg width="118" height="40" viewBox="0 0 118 40" fill="none" xmlns="http://www.w3.org/2000/svg">
<path d="M41.3586 13.2563C40.3526 13.2563 39.312 12.5625 39.312 11.3138C39.312 10.065 40.3526 9.40598 41.3586 9.40598C42.4339 9.40598 43.4398 10.065 43.4398 11.3138C43.4398 12.5625 42.4339 13.2563 41.3586 13.2563ZM39.5548 16.2393H43.197V33.9644H39.5548V16.2393Z" fill="white"/>
<path d="M62.5437 16.2393L55.4675 35.0744C54.4616 37.8147 53.317 40 49.9176 40C48.877 40 48.0098 39.8266 47.3161 39.6531V36.8782H47.6283C49.1545 37.0863 50.2992 36.9822 51.097 36.011C51.756 35.2132 52.2416 33.8257 51.5826 32.1607L45.1655 16.2393H49.0851L54.0454 29.802H54.1148L58.6588 16.2393H62.5437Z" fill="white"/>
<path d="M74.4536 20.8874C74.4536 19.604 73.6905 18.6327 71.2624 18.6327C68.3487 18.6327 67.2734 19.5346 67.0999 21.824H63.5618C63.7353 18.4246 65.9206 15.7537 71.2624 15.7537C75.182 15.7537 78.0957 17.2453 78.0957 21.9627V30.3917C78.0957 31.6404 78.3732 32.2995 79.7954 32.1607V33.8951C78.9629 34.2073 78.3732 34.2766 77.6795 34.2766C75.737 34.2766 74.8351 33.5829 74.4883 31.8485H74.4189C73.3089 33.4095 71.2971 34.4848 68.5568 34.4848C64.9493 34.4848 62.7293 32.4035 62.7293 29.4204C62.7293 25.5355 65.6084 24.3214 70.0483 23.4543C72.7886 22.934 74.4536 22.5871 74.4536 20.8874ZM69.3546 31.6057C72.3724 31.6057 74.4536 30.1142 74.4536 27.2351V24.5642C73.8639 24.9805 72.4417 25.3967 70.7421 25.7436C67.7243 26.4027 66.4062 27.2698 66.4062 29.0736C66.4062 30.7039 67.3774 31.6057 69.3546 31.6057Z" fill="white"/>
<path d="M94.3783 9.16317H98.0205V33.9644H94.3783V31.9179H94.309C93.3724 33.132 91.6381 34.4848 88.8978 34.4848C84.3538 34.4848 80.9891 30.9467 80.9891 25.1192C80.9891 19.2918 84.3538 15.7537 88.8978 15.7537C91.6381 15.7537 93.3724 17.0371 94.309 18.3899H94.3783V9.16317ZM89.5221 31.5017C92.5052 31.5017 94.3436 29.0389 94.3436 25.1192C94.3436 21.1649 92.5052 18.7368 89.5221 18.7368C86.3309 18.7368 84.6313 21.6505 84.6313 25.1192C84.6313 28.5879 86.3309 31.5017 89.5221 31.5017Z" fill="white"/>
<path d="M112.223 20.8874C112.223 19.604 111.46 18.6327 109.032 18.6327C106.118 18.6327 105.043 19.5346 104.87 21.824H101.331C101.505 18.4246 103.69 15.7537 109.032 15.7537C112.952 15.7537 115.865 17.2453 115.865 21.9627V30.3917C115.865 31.6404 116.143 32.2995 117.565 32.1607V33.8951C116.733 34.2073 116.143 34.2766 115.449 34.2766C113.507 34.2766 112.605 33.5829 112.258 31.8485H112.189C111.079 33.4095 109.067 34.4848 106.326 34.4848C102.719 34.4848 100.499 32.4035 100.499 29.4204C100.499 25.5355 103.378 24.3214 107.818 23.4543C110.558 22.934 112.223 22.5871 112.223 20.8874ZM107.124 31.6057C110.142 31.6057 112.223 30.1142 112.223 27.2351V24.5642C111.634 24.9805 110.211 25.3967 108.512 25.7436C105.494 26.4027 104.176 27.2698 104.176 29.0736C104.176 30.7039 105.147 31.6057 107.124 31.6057Z" fill="white"/>
<path d="M7.58796 35.9232C4.45823 33.4748 2.12278 30.0134 0.916328 26.0353C-0.29012 22.0571 -0.305625 17.7664 0.872034 13.7781C2.04969 9.78978 4.36006 6.30863 7.472 3.83356C10.5839 1.3585 14.3377 0.0165849 18.1953 0.000152731C22.0528 -0.0162794 25.8162 1.29361 28.9459 3.74209C32.0756 6.19057 34.4111 9.65193 35.6175 13.6301C36.824 17.6082 36.8395 21.8989 35.6618 25.8872C34.4842 29.8756 32.1738 33.3567 29.0619 35.8318L26.687 32.312C29.1143 30.3814 30.9164 27.6661 31.8349 24.5552C32.7535 21.4444 32.7414 18.0976 31.8004 14.9946C30.8594 11.8917 29.0377 9.19183 26.5965 7.28202C24.1553 5.37221 21.2199 4.35049 18.211 4.36331C15.2021 4.37612 12.2742 5.42282 9.84688 7.35337C7.41957 9.28392 5.61749 11.9992 4.69891 15.1101C3.78034 18.221 3.79243 21.5677 4.73346 24.6707C5.67449 27.7736 7.49614 30.4735 9.93734 32.3833L7.58796 35.9232Z" fill="white"/>
<path d="M29.2672 18.6283C29.2672 20.003 24.3422 21.1175 18.2669 21.1175C12.1916 21.1175 7.26662 20.003 7.26662 18.6283C7.26662 17.2536 12.1916 16.1392 18.2669 16.1392C24.3422 16.1392 29.2672 17.2536 29.2672 18.6283Z" fill="white"/>
</svg>
