<svg width="16" height="16" viewBox="0 0 16 16" fill="none" xmlns="http://www.w3.org/2000/svg">
<g clip-path="url(#clip0_256_693)">
<path d="M5.58594 8.00005L7.1926 9.61339L10.4126 6.38672" stroke="#7922AF" stroke-linecap="round" stroke-linejoin="round"/>
<path d="M7.16594 1.63289C7.62594 1.23956 8.37927 1.23956 8.84594 1.63289L9.89927 2.53956C10.0993 2.71289 10.4726 2.85289 10.7393 2.85289H11.8726C12.5793 2.85289 13.1593 3.43289 13.1593 4.13956V5.27289C13.1593 5.53289 13.2993 5.91289 13.4726 6.11289L14.3793 7.16622C14.7726 7.62622 14.7726 8.37956 14.3793 8.84622L13.4726 9.89956C13.2993 10.0996 13.1593 10.4729 13.1593 10.7396V11.8729C13.1593 12.5796 12.5793 13.1596 11.8726 13.1596H10.7393C10.4793 13.1596 10.0993 13.2996 9.89927 13.4729L8.84594 14.3796C8.38594 14.7729 7.6326 14.7729 7.16594 14.3796L6.1126 13.4729C5.9126 13.2996 5.53927 13.1596 5.2726 13.1596H4.11927C3.4126 13.1596 2.8326 12.5796 2.8326 11.8729V10.7329C2.8326 10.4729 2.6926 10.0996 2.52594 9.89956L1.62594 8.83956C1.23927 8.37956 1.23927 7.63289 1.62594 7.17289L2.52594 6.11289C2.6926 5.91289 2.8326 5.53956 2.8326 5.27956V4.13289C2.8326 3.42622 3.4126 2.84622 4.11927 2.84622H5.2726C5.5326 2.84622 5.9126 2.70622 6.1126 2.53289L7.16594 1.63289Z" stroke="#7922AF" stroke-linecap="round" stroke-linejoin="round"/>
</g>
<defs>
<clipPath id="clip0_256_693">
<rect width="16" height="16" fill="white"/>
</clipPath>
</defs>
</svg>
